<svg width="78" height="29" viewBox="0 0 78 29" fill="none" xmlns="http://www.w3.org/2000/svg">
<path fill-rule="evenodd" clip-rule="evenodd" d="M35.2722 22.3041C35.3171 22.3041 35.362 22.3193 35.392 22.3497L35.7213 22.7141C35.5417 22.9418 35.3171 23.1088 35.0626 23.2303C34.7931 23.3518 34.4787 23.4125 34.1194 23.4125C33.79 23.4125 33.4906 23.3518 33.2361 23.2455C32.9816 23.1392 32.742 22.9722 32.5624 22.7748C32.3827 22.5774 32.233 22.3345 32.1282 22.046C32.0234 21.7575 31.9785 21.4539 31.9785 21.1198C31.9785 20.7858 32.0384 20.4669 32.1432 20.1936C32.248 19.9052 32.3977 19.6774 32.5923 19.4648C32.787 19.2675 33.0115 19.1004 33.281 18.9942C33.5505 18.8879 33.8499 18.8271 34.1643 18.8271C34.4937 18.8271 34.7781 18.8879 35.0326 18.9942C35.2872 19.1004 35.4967 19.2371 35.6764 19.4193L35.4069 19.8141C35.392 19.8444 35.377 19.8596 35.347 19.8748C35.3171 19.89 35.2872 19.9052 35.2422 19.9052C35.2123 19.9052 35.1824 19.89 35.1524 19.8748C35.1225 19.8596 35.0776 19.8292 35.0476 19.8141C35.0027 19.7837 34.9578 19.7533 34.9129 19.723C34.868 19.6926 34.8081 19.6622 34.7332 19.6319C34.6584 19.6015 34.5835 19.5863 34.4937 19.5711C34.4039 19.5559 34.2991 19.5408 34.1793 19.5408C33.9847 19.5408 33.805 19.5711 33.6403 19.647C33.4756 19.723 33.3409 19.8292 33.2211 19.9507C33.1014 20.0874 33.0115 20.2544 32.9516 20.4518C32.8918 20.6491 32.8468 20.8769 32.8468 21.1198C32.8468 21.3779 32.8768 21.6057 32.9516 21.7879C33.0265 21.9701 33.1163 22.1523 33.2361 22.2889C33.3559 22.4256 33.5056 22.5319 33.6553 22.5926C33.82 22.6685 33.9996 22.6989 34.1793 22.6989C34.2991 22.6989 34.3889 22.6989 34.4787 22.6837C34.5685 22.6685 34.6584 22.6533 34.7332 22.623C34.8081 22.5926 34.8829 22.5622 34.9578 22.5167C35.0326 22.4711 35.0925 22.4256 35.1674 22.3648C35.1824 22.3497 35.2123 22.3345 35.2273 22.3193C35.2422 22.3041 35.2422 22.3041 35.2722 22.3041ZM40.7217 21.1198C40.7217 21.4539 40.6618 21.7575 40.557 22.0308C40.4522 22.3193 40.3025 22.5622 40.1079 22.7596C39.9133 22.9722 39.6737 23.124 39.4042 23.2455C39.1348 23.3669 38.8204 23.4125 38.491 23.4125C38.1616 23.4125 37.8472 23.3518 37.5777 23.2455C37.3083 23.124 37.0687 22.9722 36.8741 22.7596C36.6795 22.547 36.5298 22.3041 36.41 22.0308C36.3052 21.7423 36.2453 21.4387 36.2453 21.1198C36.2453 20.7858 36.3052 20.4821 36.41 20.2088C36.5148 19.9355 36.6645 19.6774 36.8741 19.48C37.0687 19.2675 37.3083 19.1156 37.5777 18.9942C37.8472 18.8727 38.1616 18.8271 38.491 18.8271C38.7156 18.8271 38.9252 18.8575 39.1198 18.9031C39.3144 18.9486 39.4941 19.0245 39.6587 19.1308C39.8234 19.2219 39.9731 19.3434 40.1079 19.48C40.2426 19.6167 40.3474 19.7685 40.4372 19.9355C40.5271 20.1025 40.6019 20.2847 40.6468 20.4821C40.6918 20.6795 40.7217 20.8921 40.7217 21.1198ZM39.8833 21.1198C39.8833 20.8769 39.8534 20.6491 39.7785 20.4518C39.7186 20.2544 39.6138 20.0874 39.4941 19.9507C39.3743 19.8141 39.2246 19.7078 39.0599 19.6319C38.8802 19.5559 38.6856 19.5256 38.476 19.5256C38.2664 19.5256 38.0568 19.5559 37.8921 19.6319C37.7125 19.7078 37.5777 19.8141 37.443 19.9507C37.3232 20.0874 37.2334 20.2544 37.1586 20.4518C37.0987 20.6491 37.0538 20.8769 37.0538 21.1198C37.0538 21.3628 37.0837 21.5905 37.1586 21.7879C37.2184 21.9853 37.3232 22.1523 37.443 22.2889C37.5628 22.4256 37.7125 22.5319 37.8921 22.6078C38.0718 22.6837 38.2664 22.7141 38.476 22.7141C38.6856 22.7141 38.8952 22.6837 39.0599 22.6078C39.2396 22.5319 39.3743 22.4256 39.4941 22.2889C39.6138 22.1523 39.7037 21.9853 39.7785 21.7879C39.8534 21.5905 39.8833 21.3628 39.8833 21.1198ZM46.5754 18.8727V23.3669H45.8419V20.4669C45.8419 20.3455 45.8419 20.224 45.8568 20.0874L44.5094 22.6381C44.4495 22.7596 44.3447 22.8203 44.225 22.8203H44.1052C43.9705 22.8203 43.8806 22.7596 43.8207 22.6381L42.4584 20.0722C42.4584 20.1481 42.4733 20.2088 42.4733 20.2696C42.4733 20.3303 42.4733 20.391 42.4733 20.4518V23.3669H41.7547V18.8727H42.3835C42.4134 18.8727 42.4584 18.8727 42.4733 18.8727C42.5033 18.8727 42.5182 18.8727 42.5482 18.8879C42.5632 18.9031 42.5931 18.9031 42.6081 18.9334C42.623 18.9486 42.638 18.979 42.653 19.0093L43.9854 21.5146C44.0154 21.5753 44.0453 21.6512 44.0753 21.7271C44.1052 21.8031 44.1351 21.8638 44.1651 21.9397C44.195 21.8638 44.225 21.7879 44.2549 21.712C44.2848 21.636 44.3148 21.5753 44.3597 21.4994L45.6772 19.0093C45.6921 18.979 45.7071 18.9486 45.7221 18.9334C45.7371 18.9182 45.767 18.9031 45.782 18.8879C45.7969 18.8727 45.8269 18.8727 45.8568 18.8727C45.8868 18.8727 45.9167 18.8727 45.9467 18.8727H46.5754ZM49.3002 21.135C49.4499 21.135 49.5847 21.1198 49.6895 21.0743C49.8092 21.0287 49.8991 20.9832 49.9739 20.9073C50.0488 20.8313 50.1087 20.7554 50.1386 20.6491C50.1685 20.5429 50.1985 20.4366 50.1985 20.2999C50.1985 20.1785 50.1835 20.0722 50.1386 19.9659C50.0937 19.8596 50.0488 19.7837 49.9739 19.723C49.8991 19.6622 49.8092 19.6015 49.6895 19.5711C49.5697 19.5408 49.4499 19.5104 49.2852 19.5104H48.6714V21.1198H49.3002V21.135ZM49.3002 18.8727C49.5996 18.8727 49.8541 18.9031 50.0637 18.979C50.2733 19.0549 50.453 19.146 50.6027 19.2675C50.7374 19.3889 50.8422 19.5408 50.9171 19.723C50.992 19.9052 51.0219 20.0874 51.0219 20.2999C51.0219 20.5125 50.992 20.7251 50.9171 20.8921C50.8422 21.0743 50.7374 21.2261 50.5877 21.3628C50.438 21.4994 50.2584 21.5905 50.0488 21.6664C49.8392 21.7423 49.5847 21.7727 49.2852 21.7727H48.6714V23.3669H47.848V18.8727H49.3002ZM54.5701 22.6685V23.3669H51.9651V18.8727H52.7885V22.6837H54.5701V22.6685ZM56.2918 23.3669H55.4683V18.8727H56.2918V23.3669ZM59.9447 21.6664L59.4058 20.1633C59.3758 20.1025 59.3459 20.0114 59.3159 19.9203C59.286 19.8292 59.2561 19.723 59.2261 19.6319C59.1962 19.7381 59.1662 19.8292 59.1363 19.9355C59.1063 20.0266 59.0764 20.1025 59.0465 20.1785L58.5075 21.6664H59.9447ZM61.3969 23.3669H60.7532C60.6783 23.3669 60.6184 23.3518 60.5735 23.3062C60.5286 23.2607 60.4987 23.2303 60.4687 23.1696L60.1394 22.2586H58.2979L57.9685 23.1696C57.9536 23.2151 57.9236 23.2607 57.8787 23.3062C57.8338 23.3518 57.7739 23.3669 57.6991 23.3669H57.0553L58.8069 18.8727H59.6453L61.3969 23.3669ZM65.9033 18.8727V23.3669H65.4841C65.4242 23.3669 65.3643 23.3518 65.3194 23.3366C65.2745 23.3214 65.2296 23.2758 65.1847 23.2303L62.8641 20.224C62.8791 20.3607 62.8791 20.4821 62.8791 20.6036V23.3669H62.1455V18.8727H62.5797C62.6096 18.8727 62.6396 18.8727 62.6695 18.8727C62.6994 18.8727 62.7144 18.8879 62.7444 18.8879C62.7593 18.9031 62.7893 18.9182 62.8042 18.9334C62.8192 18.9486 62.8491 18.979 62.8641 19.0093L65.1847 22.0156C65.1847 21.9397 65.1697 21.879 65.1697 21.8031C65.1697 21.7271 65.1697 21.6664 65.1697 21.6057V18.8727H65.9033ZM70.3048 19.5559H68.9724V23.3669H68.149V19.5559H66.8165V18.8727H70.3198V19.5559H70.3048Z" fill="#859BA6"/>
<path fill-rule="evenodd" clip-rule="evenodd" d="M38.8203 15.9879H36.6495V12.0099H34.1343V15.9879H31.9635V6.2251H34.1343V9.85389H36.6495V6.2251H38.8203V15.9879Z" fill="#859BA6"/>
<path fill-rule="evenodd" clip-rule="evenodd" d="M41.3954 15.9879V6.2251H43.5662V15.9727H41.3954V15.9879Z" fill="#859BA6"/>
<path fill-rule="evenodd" clip-rule="evenodd" d="M59.0015 15.988L58.6123 14.166H56.0073L55.603 15.988H53.2226L55.8426 6.19482H58.732L61.3819 15.988H59.0015ZM51.1716 11.8582C51.6956 11.266 51.965 10.431 51.965 9.33776C51.965 8.33566 51.6956 7.56132 51.1865 7.0299C50.6775 6.49849 49.929 6.22519 48.9109 6.22519H46.1412V15.988H48.3121V12.754H48.9259C49.899 12.754 50.6476 12.4503 51.1716 11.8582ZM48.7013 10.598H48.3121V8.35085H48.866C49.4648 8.35085 49.7643 8.68488 49.7643 9.33776C49.7643 9.73252 49.6744 10.0362 49.4798 10.2639C49.2852 10.4917 49.0307 10.598 48.7013 10.598ZM57.8188 10.4006L58.1631 11.9948V12.01H56.4564L56.5608 11.5243C56.8333 10.2566 57.0202 9.38752 57.1002 8.92781C57.1323 8.74318 57.1625 8.57603 57.1894 8.42706C57.2378 8.15949 57.2756 7.95054 57.2948 7.80425C57.3247 8.04718 57.3996 8.45713 57.5194 9.01891C57.59 9.35038 57.6555 9.65013 57.7126 9.91193L57.7127 9.91204C57.7524 10.0939 57.7881 10.2574 57.8188 10.4006ZM67.9992 15.988L67.6099 14.166H65.005L64.6007 15.988H62.2203L64.8403 6.19482H67.7297L70.3796 15.988H67.9992ZM66.8165 10.4006L67.1608 11.9948V12.01H65.4541C65.4902 11.8421 65.5249 11.6803 65.5585 11.5244C65.831 10.2566 66.0179 9.38753 66.0979 8.92781C66.13 8.74316 66.1602 8.576 66.1871 8.42702C66.2355 8.15947 66.2733 7.95054 66.2925 7.80425C66.3224 8.04718 66.3973 8.45713 66.5171 9.01891C66.5877 9.35043 66.6532 9.65022 66.7104 9.91205C66.7501 10.0939 66.7858 10.2574 66.8165 10.4006Z" fill="#859BA6"/>
<path fill-rule="evenodd" clip-rule="evenodd" d="M0 14.4241C0 6.45288 6.36276 0 14.2226 0C22.0676 0 28.4453 6.45288 28.4453 14.4241C28.4453 22.3953 22.0825 28.8482 14.2226 28.8482C6.36276 28.8482 0 22.3953 0 14.4241ZM3.18887 14.4089C3.18887 20.5885 8.12937 25.599 14.2226 25.599C20.3159 25.599 25.2564 20.5885 25.2564 14.4089C25.2564 8.22932 20.3159 3.21885 14.2226 3.21885C8.12937 3.21885 3.18887 8.22932 3.18887 14.4089Z" fill="#859BA6"/>
<path fill-rule="evenodd" clip-rule="evenodd" d="M15.9893 28.2714H64.3013C71.8169 28.2714 77.9551 22.0311 77.9551 14.4243C77.9551 6.80228 71.8019 0.577148 64.3013 0.577148H15.9893V1.80699H19.0434H63.8672C70.709 1.80699 76.3083 7.48553 76.3083 14.4243C76.3083 21.363 70.709 27.0415 63.8672 27.0415H19.0434H15.9893V28.2714Z" fill="#859BA6"/>
<path fill-rule="evenodd" clip-rule="evenodd" d="M18.3996 10.8407C18.3996 8.66946 16.5282 6.9082 14.2227 6.9082C11.9171 6.9082 10.0457 8.66946 10.0457 10.8407V14.2113H11.2434V10.8407C11.2434 9.29197 12.5758 8.03176 14.2227 8.03176C15.8695 8.03176 17.202 9.29197 17.202 10.8407V14.2113H18.3996V10.8407Z" fill="#859BA6" stroke="#5D627A" stroke-width="0.68985"/>
<path fill-rule="evenodd" clip-rule="evenodd" d="M8.63842 12.3286H19.792C20.5555 12.3286 21.1843 12.9208 21.1693 13.6647V19.7532H7.24609V13.6647C7.24609 12.9208 7.87488 12.3286 8.63842 12.3286ZM19.792 21.6359H8.63842C7.88986 21.6359 7.26106 21.0286 7.26106 20.2998H21.1843C21.1843 21.0438 20.5555 21.6359 19.792 21.6359Z" fill="#859BA6"/>
</svg>
