<?xml version="1.0" encoding="utf-8"?>
<!-- Generator: Adobe Illustrator 23.0.1, SVG Export Plug-In . SVG Version: 6.00 Build 0)  -->
<svg version="1.1" id="Layer_1" xmlns="http://www.w3.org/2000/svg" xmlns:xlink="http://www.w3.org/1999/xlink" x="0px" y="0px"
	 viewBox="0 0 1440 754" style="enable-background:new 0 0 1440 754;" xml:space="preserve">
<style type="text/css">
	.st0{fill-rule:evenodd;clip-rule:evenodd;fill:#53BE4B;fill-opacity:0.75;}
	.st1{opacity:0.3;fill:#FFFFFF;}
</style>
<path class="st0" d="M122.6,339.5c71.4,55.4-37.7,95-39.5,171.2c-1.7,76.2-176.7,55.7-176.7,55.7s37.8,109,24.1,124.1
	c-13.7,15-68,37.8-133.9-22.3c-65.9-60.2,5-73.3,5-73.3s87.7-102,88.7-143.4c0.6-22.9-84.8-552.8,146-388.9
	C266.9,226.4,51.2,284.1,122.6,339.5z"/>
<g>
	<g>
		<circle class="st1" cx="-100" cy="338.6" r="13.6"/>
		<circle class="st1" cx="-72.5" cy="313.6" r="13.6"/>
		<circle class="st1" cx="-44.9" cy="288.6" r="13.6"/>
		<circle class="st1" cx="-17.4" cy="263.5" r="13.6"/>
		<circle class="st1" cx="10.2" cy="238.5" r="13.6"/>
		<circle class="st1" cx="37.7" cy="213.5" r="13.6"/>
		<circle class="st1" cx="65.3" cy="188.4" r="13.6"/>
		<circle class="st1" cx="92.8" cy="163.4" r="13.6"/>
		<circle class="st1" cx="-127.6" cy="308.3" r="13.6"/>
		<circle class="st1" cx="-100.1" cy="283.3" r="13.6"/>
		<circle class="st1" cx="-72.5" cy="258.3" r="13.6"/>
		<circle class="st1" cx="-45" cy="233.2" r="13.6"/>
		<circle class="st1" cx="-17.4" cy="208.2" r="13.6"/>
		<circle class="st1" cx="10.1" cy="183.2" r="13.6"/>
		<circle class="st1" cx="37.7" cy="158.1" r="13.6"/>
		<circle class="st1" cx="65.2" cy="133.1" r="13.6"/>
		<circle class="st1" cx="-72.6" cy="368.9" r="13.6"/>
		<circle class="st1" cx="-45" cy="343.9" r="13.6"/>
		<circle class="st1" cx="-17.5" cy="318.8" r="13.6"/>
		<circle class="st1" cx="10.1" cy="293.8" r="13.6"/>
		<circle class="st1" cx="37.6" cy="268.8" r="13.6"/>
		<circle class="st1" cx="65.2" cy="243.7" r="13.6"/>
		<circle class="st1" cx="92.7" cy="218.7" r="13.6"/>
		<circle class="st1" cx="120.3" cy="193.7" r="13.6"/>
	</g>
	<g>
		<circle class="st1" cx="-24.4" cy="425.8" r="13.6"/>
		<circle class="st1" cx="3.1" cy="400.7" r="13.6"/>
		<circle class="st1" cx="30.7" cy="375.7" r="13.6"/>
		<circle class="st1" cx="58.2" cy="350.7" r="13.6"/>
		<circle class="st1" cx="85.8" cy="325.6" r="13.6"/>
		<circle class="st1" cx="113.3" cy="300.6" r="13.6"/>
		<circle class="st1" cx="140.9" cy="275.6" r="13.6"/>
		<circle class="st1" cx="168.4" cy="250.5" r="13.6"/>
		<circle class="st1" cx="-52" cy="395.5" r="13.6"/>
		<circle class="st1" cx="-24.5" cy="370.4" r="13.6"/>
		<circle class="st1" cx="3.1" cy="345.4" r="13.6"/>
		<circle class="st1" cx="30.6" cy="320.4" r="13.6"/>
		<circle class="st1" cx="58.2" cy="295.3" r="13.6"/>
		<circle class="st1" cx="85.7" cy="270.3" r="13.6"/>
		<circle class="st1" cx="113.3" cy="245.3" r="13.6"/>
		<circle class="st1" cx="140.8" cy="220.2" r="13.6"/>
		<circle class="st1" cx="3" cy="456" r="13.6"/>
		<circle class="st1" cx="30.6" cy="431" r="13.6"/>
		<circle class="st1" cx="58.1" cy="406" r="13.6"/>
		<circle class="st1" cx="85.7" cy="380.9" r="13.6"/>
		<circle class="st1" cx="113.2" cy="355.9" r="13.6"/>
		<circle class="st1" cx="140.8" cy="330.9" r="13.6"/>
		<circle class="st1" cx="168.3" cy="305.8" r="13.6"/>
		<circle class="st1" cx="195.8" cy="280.8" r="13.6"/>
	</g>
</g>
<path class="st0" d="M1263.8,428c-71.5-55.3,37.5-95.1,39.1-171.3c1.6-76.2,176.6-56,176.6-56s-38-108.9-24.3-124
	c13.7-15.1,67.9-38,134,22.1c66.1,60-4.9,73.3-4.9,73.3s-87.5,102.2-88.4,143.6c-0.5,22.9,85.9,552.6-145.2,389.2
	C1119.7,541.4,1335.3,483.3,1263.8,428z"/>
<g>
	<g>
		<circle class="st1" cx="1486.4" cy="428.4" r="13.6"/>
		<circle class="st1" cx="1458.9" cy="453.5" r="13.6"/>
		<circle class="st1" cx="1431.4" cy="478.6" r="13.6"/>
		<circle class="st1" cx="1403.9" cy="503.7" r="13.6"/>
		<circle class="st1" cx="1376.4" cy="528.8" r="13.6"/>
		<circle class="st1" cx="1348.9" cy="553.9" r="13.6"/>
		<circle class="st1" cx="1321.5" cy="578.9" r="13.6"/>
		<circle class="st1" cx="1294" cy="604" r="13.6"/>
		<circle class="st1" cx="1514.1" cy="458.7" r="13.6"/>
		<circle class="st1" cx="1486.6" cy="483.7" r="13.6"/>
		<circle class="st1" cx="1459.1" cy="508.8" r="13.6"/>
		<circle class="st1" cx="1431.6" cy="533.9" r="13.6"/>
		<circle class="st1" cx="1404.1" cy="559" r="13.6"/>
		<circle class="st1" cx="1376.6" cy="584.1" r="13.6"/>
		<circle class="st1" cx="1349.1" cy="609.2" r="13.6"/>
		<circle class="st1" cx="1321.6" cy="634.3" r="13.6"/>
		<circle class="st1" cx="1458.9" cy="398.2" r="13.6"/>
		<circle class="st1" cx="1431.4" cy="423.3" r="13.6"/>
		<circle class="st1" cx="1403.9" cy="448.4" r="13.6"/>
		<circle class="st1" cx="1376.4" cy="473.5" r="13.6"/>
		<circle class="st1" cx="1348.9" cy="498.6" r="13.6"/>
		<circle class="st1" cx="1321.4" cy="523.6" r="13.6"/>
		<circle class="st1" cx="1293.9" cy="548.7" r="13.6"/>
		<circle class="st1" cx="1266.5" cy="573.8" r="13.6"/>
	</g>
	<g>
		<circle class="st1" cx="1410.6" cy="341.4" r="13.6"/>
		<circle class="st1" cx="1383.2" cy="366.5" r="13.6"/>
		<circle class="st1" cx="1355.7" cy="391.6" r="13.6"/>
		<circle class="st1" cx="1328.2" cy="416.7" r="13.6"/>
		<circle class="st1" cx="1300.7" cy="441.8" r="13.6"/>
		<circle class="st1" cx="1273.2" cy="466.9" r="13.6"/>
		<circle class="st1" cx="1245.7" cy="492" r="13.6"/>
		<circle class="st1" cx="1218.2" cy="517.1" r="13.6"/>
		<circle class="st1" cx="1438.3" cy="371.7" r="13.6"/>
		<circle class="st1" cx="1410.8" cy="396.8" r="13.6"/>
		<circle class="st1" cx="1383.3" cy="421.9" r="13.6"/>
		<circle class="st1" cx="1355.8" cy="446.9" r="13.6"/>
		<circle class="st1" cx="1328.3" cy="472" r="13.6"/>
		<circle class="st1" cx="1300.8" cy="497.1" r="13.6"/>
		<circle class="st1" cx="1273.3" cy="522.2" r="13.6"/>
		<circle class="st1" cx="1245.9" cy="547.3" r="13.6"/>
		<circle class="st1" cx="1383.1" cy="311.2" r="13.6"/>
		<circle class="st1" cx="1355.6" cy="336.3" r="13.6"/>
		<circle class="st1" cx="1328.1" cy="361.4" r="13.6"/>
		<circle class="st1" cx="1300.7" cy="386.5" r="13.6"/>
		<circle class="st1" cx="1273.2" cy="411.6" r="13.6"/>
		<circle class="st1" cx="1245.7" cy="436.7" r="13.6"/>
		<circle class="st1" cx="1218.2" cy="461.7" r="13.6"/>
		<circle class="st1" cx="1190.7" cy="486.8" r="13.6"/>
	</g>
</g>
</svg>
