<svg width="58" height="58" viewBox="0 0 58 58" fill="none" xmlns="http://www.w3.org/2000/svg">
<g clip-path="url(#clip0)">
<path d="M56.8371 12.1655C55.4445 5.68948 53.2855 1.1538 53.1948 0.96397C52.8196 0.183391 51.9173 -0.190083 51.1 0.09666C50.9407 0.152416 47.136 1.50161 42.3433 4.36152C37.897 7.01434 31.7324 11.5283 27.6149 17.9628C27.2578 18.5212 27.2578 19.2363 27.6154 19.7943C28.4871 21.1568 29.2283 22.5706 29.8186 23.9964C35.1371 36.8361 29.0526 52.0596 27.7658 55.0084L27.4986 55.6005C27.2185 56.22 27.3344 56.947 27.7942 57.4488C28.122 57.8059 28.5787 57.9998 29.0469 57.9998C29.2349 57.9998 29.4252 57.9683 29.6093 57.9037C29.808 57.8343 34.5415 56.1536 40.1055 52.5587C43.3849 50.44 46.2749 48.0903 48.6945 45.5751C51.7536 42.3961 54.0688 38.9402 55.5746 35.3046C57.0805 31.6685 57.8876 27.5882 57.9725 23.1768C58.0398 19.6877 57.6579 15.983 56.8371 12.1655Z" fill="#00AB5E"/>
<path d="M57.9725 23.1766C58.0398 19.6875 57.6579 15.9828 56.8371 12.1653C55.4445 5.68927 53.2855 1.15359 53.1948 0.96376C53.0072 0.573471 52.6877 0.284958 52.3134 0.129639L28.3969 57.869C28.6026 57.954 28.8234 57.9995 29.0469 57.9995C29.2354 57.9995 29.4257 57.9681 29.6098 57.9035C29.8084 57.834 34.5415 56.1534 40.106 52.5585C43.3849 50.4398 46.2749 48.0901 48.6945 45.5749C51.754 42.3959 54.0688 38.94 55.5746 35.3044C57.0809 31.6683 57.8876 27.588 57.9725 23.1766Z" fill="#00884A"/>
<path d="M29.2553 57.4956C29.0384 57.4956 28.8181 57.4535 28.6057 57.3659C27.7384 57.0066 27.3268 56.0127 27.6857 55.1459L45.9142 11.1383C46.2731 10.271 47.267 9.85947 48.1343 10.2188C49.0012 10.5777 49.4131 11.5715 49.0538 12.4388L30.8257 56.4459C30.5545 57.1004 29.9217 57.4956 29.2553 57.4956Z" fill="#54E360"/>
<path d="M32.9587 22.6958C32.2923 21.0855 31.4573 19.4929 30.478 17.9627C30.4771 17.9618 30.4762 17.9605 30.4758 17.9596C26.3583 11.5265 20.1955 7.01428 15.7501 4.36146C10.9573 1.50155 7.15313 0.152352 6.99338 0.096596C6.17652 -0.19059 5.27425 0.183327 4.89901 0.963905C4.80785 1.15418 2.64887 5.68942 1.25675 12.1659C0.435461 15.983 0.053579 19.6872 0.12084 23.1768C0.206243 27.5881 1.01293 31.6684 2.51877 35.3045C4.02506 38.9406 6.3398 42.3961 9.39884 45.5755C11.8185 48.0902 14.7085 50.4399 17.9874 52.5586C23.5519 56.1536 28.2849 57.8337 28.4841 57.9037C28.6695 57.9687 28.8598 58.0001 29.0465 58.0001C29.6974 58.0001 30.3134 57.624 30.5948 57.0001L30.8674 56.3978C30.8705 56.3912 30.8736 56.3845 30.8763 56.3779C31.6573 54.5902 33.5879 49.77 34.6464 43.6395C36.0111 35.7404 35.4429 28.6939 32.9587 22.6958Z" fill="#54E360"/>
<path d="M30.4779 17.9627C30.477 17.9618 30.4762 17.9604 30.4753 17.9596C26.3582 11.5264 20.195 7.0142 15.75 4.36138C10.9573 1.50147 7.15305 0.152277 6.9933 0.0965215C6.58487 -0.0472925 6.15475 -0.0256097 5.7804 0.129709L29.6969 57.8691C30.0832 57.7089 30.4107 57.408 30.5947 57L30.8673 56.3977C30.8704 56.3911 30.8735 56.3845 30.8762 56.3778C31.6572 54.5901 33.5878 49.7699 34.6463 43.6394C36.011 35.7403 35.4428 28.6938 32.9586 22.6957C32.2922 21.0854 31.4572 19.4928 30.4779 17.9627Z" fill="#1FBF66"/>
<path d="M11.6902 14.3979C10.8233 14.7572 10.4118 15.751 10.7707 16.6179L27.7589 57.6301C28.1863 57.7983 28.4412 57.889 28.4841 57.9036C28.6695 57.9687 28.8598 58.0001 29.0466 58.0001C29.6975 58.0001 30.3135 57.624 30.5949 57L30.8675 56.3978C30.8706 56.3911 30.8737 56.3845 30.8763 56.3779C30.8834 56.3624 30.8909 56.3442 30.898 56.3287L13.9102 15.3174C13.5514 14.451 12.5575 14.0386 11.6902 14.3979Z" fill="#00AB5E"/>
</g>
<defs>
<clipPath id="clip0">
<rect width="58" height="58" fill="white"/>
</clipPath>
</defs>
</svg>
