<svg width="323" height="243" viewBox="0 0 323 243" fill="none" xmlns="http://www.w3.org/2000/svg">
<path d="M260.742 185.321H259.934V156.857H248.508V185.321H247.701V156.453C247.701 156.211 247.862 156.049 248.104 156.049H260.338C260.58 156.049 260.742 156.211 260.742 156.453V185.321Z" fill="#53BE4B"/>
<path d="M278.466 185.321H277.659V176.196H262.599V185.321H261.791V175.792C261.791 175.55 261.953 175.389 262.195 175.389H278.063C278.305 175.389 278.466 175.55 278.466 175.792V185.321Z" fill="#53BE4B"/>
<path d="M276.892 175.793H276.084V173.451H264.174V175.793H263.366V173.047C263.366 172.805 263.528 172.644 263.77 172.644H276.488C276.73 172.644 276.892 172.805 276.892 173.047V175.793Z" fill="#53BE4B"/>
<path d="M275.478 173.048H274.671V171.514H270.512V173.048H269.705V171.11C269.705 170.868 269.866 170.707 270.109 170.707H275.075C275.317 170.707 275.478 170.868 275.478 171.11V173.048Z" fill="#53BE4B"/>
<path d="M244.309 185.321H243.501V151.406C243.501 151.164 243.663 151.002 243.905 151.002H257.108C257.35 151.002 257.512 151.164 257.512 151.406V156.493H256.704V151.81H244.309V185.321Z" fill="#53BE4B"/>
<path d="M235.427 168.364H234.619V137.235C234.619 136.993 234.781 136.832 235.023 136.832H248.104C248.347 136.832 248.508 136.993 248.508 137.235V151.407H247.701V137.639H235.427V168.364Z" fill="#53BE4B"/>
<path d="M238.333 185.322H237.526V168.768H230.218V185.322H229.411V168.364C229.411 168.122 229.572 167.96 229.814 167.96H237.93C238.172 167.96 238.333 168.122 238.333 168.364V185.322Z" fill="#53BE4B"/>
<path d="M183.383 185.725H182.576V69.849H155.928V119.914H155.121V69.4453C155.121 69.203 155.282 69.0415 155.524 69.0415H182.979C183.222 69.0415 183.383 69.203 183.383 69.4453V185.725Z" fill="#53BE4B"/>
<path d="M180.961 69.4449H180.153V65.6093H158.351V69.4449H157.543V65.2055C157.543 64.9633 157.705 64.8018 157.947 64.8018H180.557C180.799 64.8018 180.961 64.9633 180.961 65.2055V69.4449Z" fill="#53BE4B"/>
<path d="M169.696 185.324H168.888V134.209H168.121C167.879 134.209 167.718 134.047 167.718 133.805V130.817H143.371V133.805C143.371 134.047 143.21 134.209 142.968 134.209H142.201V145.756H141.393V133.805C141.393 133.563 141.555 133.401 141.797 133.401H142.564V130.414C142.564 130.171 142.725 130.01 142.968 130.01H168.121C168.364 130.01 168.525 130.171 168.525 130.414V133.401H169.292C169.534 133.401 169.696 133.563 169.696 133.805V185.324Z" fill="#53BE4B"/>
<path d="M167.233 130.414H166.425V127.991H144.623V130.414H143.815V127.587C143.815 127.345 143.977 127.184 144.219 127.184H166.829C167.071 127.184 167.233 127.345 167.233 127.587V130.414Z" fill="#53BE4B"/>
<path d="M165.255 127.788H164.447V126.052L155.565 120.4L146.682 126.052V127.788H145.875V125.85C145.875 125.729 145.956 125.568 146.077 125.527L155.363 119.592C155.484 119.512 155.646 119.512 155.807 119.592L165.093 125.527C165.214 125.608 165.295 125.729 165.295 125.85V127.788H165.255Z" fill="#53BE4B"/>
<path d="M182.576 185.766L169.252 72.8771L163.115 124.759L162.307 124.678L168.848 69.4049C168.888 69.203 169.05 69.0415 169.252 69.0415C169.454 69.0415 169.615 69.203 169.656 69.4049L183.383 185.685L182.576 185.766Z" fill="#53BE4B"/>
<path d="M169.655 59.6343H168.848V65.2868H169.655V59.6343Z" fill="#53BE4B"/>
<path d="M169.252 60.0374C168.041 60.0374 167.031 59.0281 167.031 57.8168C167.031 56.6056 168.041 55.5962 169.252 55.5962C170.463 55.5962 171.472 56.6056 171.472 57.8168C171.472 59.0281 170.463 60.0374 169.252 60.0374ZM169.252 56.4037C168.485 56.4037 167.839 57.0497 167.839 57.8168C167.839 58.5839 168.485 59.2299 169.252 59.2299C170.019 59.2299 170.665 58.5839 170.665 57.8168C170.665 57.0497 170.019 56.4037 169.252 56.4037Z" fill="#53BE4B"/>
<path d="M169.655 46.916H168.848V56.0004H169.655V46.916Z" fill="#53BE4B"/>
<path d="M166.829 132.631H144.219V133.439H166.829V132.631Z" fill="#53BE4B"/>
<path d="M166.829 135.297H144.219V136.104H166.829V135.297Z" fill="#53BE4B"/>
<path d="M166.829 138H144.219V138.808H166.829V138Z" fill="#53BE4B"/>
<path d="M166.829 140.707H144.219V141.514H166.829V140.707Z" fill="#53BE4B"/>
<path d="M166.829 143.371H144.219V144.179H166.829V143.371Z" fill="#53BE4B"/>
<path d="M166.829 146.076H147.046V146.883H166.829V146.076Z" fill="#53BE4B"/>
<path d="M166.829 148.742H151.083V149.549H166.829V148.742Z" fill="#53BE4B"/>
<path d="M166.829 151.445H153.061V152.253H166.829V151.445Z" fill="#53BE4B"/>
<path d="M166.829 154.151H154.353V154.958H166.829V154.151Z" fill="#53BE4B"/>
<path d="M166.829 156.815H155.524V157.623H166.829V156.815Z" fill="#53BE4B"/>
<path d="M166.829 159.521H155.524V160.329H166.829V159.521Z" fill="#53BE4B"/>
<path d="M166.829 162.186H155.524V162.994H166.829V162.186Z" fill="#53BE4B"/>
<path d="M166.829 164.89H155.524V165.697H166.829V164.89Z" fill="#53BE4B"/>
<path d="M166.829 167.556H155.524V168.363H166.829V167.556Z" fill="#53BE4B"/>
<path d="M166.829 170.26H155.524V171.068H166.829V170.26Z" fill="#53BE4B"/>
<path d="M166.829 172.966H155.524V173.774H166.829V172.966Z" fill="#53BE4B"/>
<path d="M166.829 175.631H155.524V176.438H166.829V175.631Z" fill="#53BE4B"/>
<path d="M166.829 178.336H155.524V179.144H166.829V178.336Z" fill="#53BE4B"/>
<path d="M166.829 181H155.524V181.807H166.829V181Z" fill="#53BE4B"/>
<path d="M166.829 183.706H155.524V184.514H166.829V183.706Z" fill="#53BE4B"/>
<path d="M120.6 125.889H90.3186V126.696H120.6V125.889Z" fill="#53BE4B"/>
<path d="M120.6 128.594H90.3186V129.402H120.6V128.594Z" fill="#53BE4B"/>
<path d="M120.6 131.3H90.3186V132.108H120.6V131.3Z" fill="#53BE4B"/>
<path d="M120.6 133.964H90.3186V134.771H120.6V133.964Z" fill="#53BE4B"/>
<path d="M120.6 136.668H90.3186V137.476H120.6V136.668Z" fill="#53BE4B"/>
<path d="M120.6 139.334H90.3186V140.141H120.6V139.334Z" fill="#53BE4B"/>
<path d="M120.6 142.039H90.3186V142.846H120.6V142.039Z" fill="#53BE4B"/>
<path d="M120.6 144.703H90.3186V145.511H120.6V144.703Z" fill="#53BE4B"/>
<path d="M120.6 147.408H90.3186V148.216H120.6V147.408Z" fill="#53BE4B"/>
<path d="M120.6 150.114H90.3186V150.922H120.6V150.114Z" fill="#53BE4B"/>
<path d="M120.6 152.78H90.3186V153.587H120.6V152.78Z" fill="#53BE4B"/>
<path d="M120.6 155.483H90.3186V156.291H120.6V155.483Z" fill="#53BE4B"/>
<path d="M120.6 158.149H90.3186V158.956H120.6V158.149Z" fill="#53BE4B"/>
<path d="M120.6 160.854H90.3186V161.661H120.6V160.854Z" fill="#53BE4B"/>
<path d="M120.6 163.559H90.3186V164.366H120.6V163.559Z" fill="#53BE4B"/>
<path d="M98.757 166.224H90.3186V167.032H98.757V166.224Z" fill="#53BE4B"/>
<path d="M98.757 168.928H90.3186V169.736H98.757V168.928Z" fill="#53BE4B"/>
<path d="M96.8997 171.593H90.3186V172.4H96.8997V171.593Z" fill="#53BE4B"/>
<path d="M96.8997 174.298H90.3186V175.106H96.8997V174.298Z" fill="#53BE4B"/>
<path d="M96.8997 176.963H90.3186V177.771H96.8997V176.963Z" fill="#53BE4B"/>
<path d="M153.102 156.817H130.492V157.624H153.102V156.817Z" fill="#53BE4B"/>
<path d="M153.102 159.522H130.492V160.329H153.102V159.522Z" fill="#53BE4B"/>
<path d="M153.102 162.187H130.492V162.994H153.102V162.187Z" fill="#53BE4B"/>
<path d="M153.102 164.892H130.492V165.7H153.102V164.892Z" fill="#53BE4B"/>
<path d="M153.102 167.557H137.961V168.364H153.102V167.557Z" fill="#53BE4B"/>
<path d="M153.061 170.261H139.778V171.069H153.061V170.261Z" fill="#53BE4B"/>
<path d="M153.061 172.967H139.778V173.775H153.061V172.967Z" fill="#53BE4B"/>
<path d="M153.061 175.632H139.778V176.439H153.061V175.632Z" fill="#53BE4B"/>
<path d="M153.061 178.337H139.778V179.144H153.061V178.337Z" fill="#53BE4B"/>
<path d="M153.061 181.001H139.778V181.809H153.061V181.001Z" fill="#53BE4B"/>
<path d="M153.061 183.707H139.778V184.515H153.061V183.707Z" fill="#53BE4B"/>
<path d="M155.928 185.322H155.121V157.625H154.353C154.111 157.625 153.95 157.463 153.95 157.221V154.233H129.604V157.221C129.604 157.463 129.442 157.625 129.2 157.625H128.433V166.265H127.625V157.221C127.625 156.979 127.787 156.817 128.029 156.817H128.796V153.83C128.796 153.587 128.958 153.426 129.2 153.426H154.353C154.596 153.426 154.757 153.587 154.757 153.83V156.817H155.524C155.767 156.817 155.928 156.979 155.928 157.221V185.322Z" fill="#53BE4B"/>
<path d="M153.465 153.829H152.658V151.406H130.855V153.829H130.048V151.002C130.048 150.76 130.209 150.599 130.451 150.599H153.061C153.304 150.599 153.465 150.76 153.465 151.002V153.829Z" fill="#53BE4B"/>
<path d="M151.083 151.406H132.47C132.228 151.406 132.066 151.245 132.066 151.003V149.065C132.066 148.943 132.147 148.782 132.268 148.742L137.436 145.431C137.517 145.39 137.557 145.35 137.638 145.35H145.875C145.955 145.35 146.036 145.39 146.077 145.431L151.245 148.742C151.366 148.822 151.446 148.943 151.446 149.065V151.003C151.487 151.204 151.285 151.406 151.083 151.406ZM132.874 150.599H150.679V149.266L145.794 146.158H137.8L132.914 149.266V150.599H132.874Z" fill="#53BE4B"/>
<path d="M189.641 185.322H188.834V137.276C188.834 137.033 188.995 136.872 189.237 136.872H190.004V133.884C190.004 133.642 190.166 133.48 190.408 133.48H215.602C215.844 133.48 216.006 133.642 216.006 133.884V136.872H216.773C217.015 136.872 217.177 137.033 217.177 137.276V154.112H216.369V137.679H215.602C215.36 137.679 215.198 137.518 215.198 137.276V134.288H190.852V137.276C190.852 137.518 190.691 137.679 190.449 137.679H189.681V185.322H189.641Z" fill="#53BE4B"/>
<path d="M214.714 133.844H213.907V131.421H192.104V133.844H191.297V131.018C191.297 130.775 191.458 130.614 191.7 130.614H214.31C214.553 130.614 214.714 130.775 214.714 131.018V133.844Z" fill="#53BE4B"/>
<path d="M214.31 138.003H191.7V138.81H214.31V138.003Z" fill="#53BE4B"/>
<path d="M214.31 140.709H191.7V141.516H214.31V140.709Z" fill="#53BE4B"/>
<path d="M214.31 143.373H191.7V144.18H214.31V143.373Z" fill="#53BE4B"/>
<path d="M214.31 146.079H191.7V146.886H214.31V146.079Z" fill="#53BE4B"/>
<path d="M214.31 148.743H191.7V149.551H214.31V148.743Z" fill="#53BE4B"/>
<path d="M214.31 151.447H191.7V152.254H214.31V151.447Z" fill="#53BE4B"/>
<path d="M213.341 154.153H191.7V154.96H213.341V154.153Z" fill="#53BE4B"/>
<path d="M213.341 156.818H191.7V157.626H213.341V156.818Z" fill="#53BE4B"/>
<path d="M213.341 159.523H191.7V160.33H213.341V159.523Z" fill="#53BE4B"/>
<path d="M210.192 162.188H191.7V162.995H210.192V162.188Z" fill="#53BE4B"/>
<path d="M210.192 164.894H191.7V165.701H210.192V164.894Z" fill="#53BE4B"/>
<path d="M210.192 167.558H191.7V168.366H210.192V167.558Z" fill="#53BE4B"/>
<path d="M207.002 170.263H191.7V171.07H207.002V170.263Z" fill="#53BE4B"/>
<path d="M207.002 172.968H191.7V173.775H207.002V172.968Z" fill="#53BE4B"/>
<path d="M207.002 175.632H191.7V176.44H207.002V175.632Z" fill="#53BE4B"/>
<path d="M203.732 178.338H191.7V179.146H203.732V178.338Z" fill="#53BE4B"/>
<path d="M203.732 181.003H191.7V181.81H203.732V181.003Z" fill="#53BE4B"/>
<path d="M203.732 183.708H191.7V184.515H203.732V183.708Z" fill="#53BE4B"/>
<path d="M212.736 131.421H193.275C193.154 131.421 193.033 131.381 192.952 131.259C192.871 131.138 192.831 131.017 192.871 130.896C194.042 126.253 198.201 123.023 203.005 123.023C207.769 123.023 211.969 126.253 213.139 130.896C213.18 131.017 213.139 131.138 213.059 131.259C212.978 131.381 212.857 131.421 212.736 131.421ZM193.8 130.613H212.211C210.959 126.616 207.245 123.83 203.005 123.83C198.766 123.871 195.051 126.616 193.8 130.613Z" fill="#53BE4B"/>
<path d="M228.078 156.818H215.158V157.626H228.078V156.818Z" fill="#53BE4B"/>
<path d="M228.078 159.523H215.158V160.331H228.078V159.523Z" fill="#53BE4B"/>
<path d="M228.078 162.188H215.158V162.995H228.078V162.188Z" fill="#53BE4B"/>
<path d="M228.038 164.893H212.009V165.7H228.038V164.893Z" fill="#53BE4B"/>
<path d="M228.038 167.558H212.009V168.366H228.038V167.558Z" fill="#53BE4B"/>
<path d="M228.038 170.263H212.009V171.07H228.038V170.263Z" fill="#53BE4B"/>
<path d="M228.038 172.969H208.981V173.776H228.038V172.969Z" fill="#53BE4B"/>
<path d="M228.038 175.632H208.981V176.44H228.038V175.632Z" fill="#53BE4B"/>
<path d="M228.038 178.338H208.981V179.146H228.038V178.338Z" fill="#53BE4B"/>
<path d="M228.038 181.003H205.751V181.81H228.038V181.003Z" fill="#53BE4B"/>
<path d="M228.038 183.708H205.751V184.515H228.038V183.708Z" fill="#53BE4B"/>
<path d="M230.178 185.322H229.37V154.516H213.826V161.905C213.826 162.147 213.664 162.308 213.422 162.308H210.596V169.697C210.596 169.939 210.434 170.101 210.192 170.101H207.366V177.489C207.366 177.732 207.204 177.893 206.962 177.893H204.136V185.322H203.328V177.53C203.328 177.287 203.49 177.126 203.732 177.126H206.558V169.737C206.558 169.495 206.72 169.334 206.962 169.334H209.788V161.905C209.788 161.662 209.95 161.501 210.192 161.501H213.018V154.112C213.018 153.87 213.18 153.708 213.422 153.708H229.774C230.016 153.708 230.178 153.87 230.178 154.112V185.322Z" fill="#53BE4B"/>
<path d="M137.921 172.078H98.757V172.885H137.921V172.078Z" fill="#53BE4B"/>
<path d="M137.921 174.784H98.757V175.591H137.921V174.784Z" fill="#53BE4B"/>
<path d="M137.921 177.488H98.757V178.296H137.921V177.488Z" fill="#53BE4B"/>
<path d="M137.921 180.153H98.757V180.961H137.921V180.153Z" fill="#53BE4B"/>
<path d="M137.921 182.859H98.757V183.666H137.921V182.859Z" fill="#53BE4B"/>
<path d="M140.182 185.321H139.374V170.1H137.921C137.679 170.1 137.517 169.938 137.517 169.696V166.708H99.1608V169.696C99.1608 169.938 98.9993 170.1 98.757 170.1H97.3035V185.321H96.496V169.696C96.496 169.454 96.6575 169.292 96.8998 169.292H98.3533V166.305C98.3533 166.062 98.5148 165.901 98.757 165.901H137.921C138.163 165.901 138.325 166.062 138.325 166.305V169.292H139.778C140.02 169.292 140.182 169.454 140.182 169.696V185.321Z" fill="#53BE4B"/>
<path d="M137.921 169.293H98.757V170.1H137.921V169.293Z" fill="#53BE4B"/>
<path d="M88.2595 185.321H87.452V123.467C87.452 123.224 87.6135 123.063 87.8558 123.063H123.103C123.345 123.063 123.507 123.224 123.507 123.467V166.305H122.699V123.87H88.2595V185.321Z" fill="#53BE4B"/>
<path d="M85.1507 185.321H84.3432V128.998C84.3432 128.756 84.5047 128.594 84.747 128.594H87.8558V129.402H85.1507V185.321Z" fill="#53BE4B"/>
<path d="M56.2017 185.323H55.3942V175.956H45.3005V185.323H44.493V175.553C44.493 175.31 44.6545 175.149 44.8967 175.149H55.798C56.0402 175.149 56.2017 175.31 56.2017 175.553V185.323Z" fill="#53BE4B"/>
<path d="M73.5631 185.324H72.7556V165.782H56.2422V170.91C56.2422 171.152 56.0807 171.313 55.8384 171.313H50.7916V175.553H49.9841V170.91C49.9841 170.667 50.1456 170.506 50.3878 170.506H55.4347V165.378C55.4347 165.136 55.5962 164.975 55.8384 164.975H73.1593C73.4016 164.975 73.5631 165.136 73.5631 165.378V185.324Z" fill="#53BE4B"/>
<path d="M79.821 175.35H79.0135V150.52L69.6466 156.697V165.378H68.8391V156.455C68.8391 156.334 68.9198 156.172 69.0409 156.132L79.2154 149.43C79.3365 149.349 79.498 149.349 79.6192 149.43C79.7403 149.51 79.821 149.632 79.821 149.793V175.35Z" fill="#53BE4B"/>
<path d="M76.9141 185.323H76.1066V175.351C76.1066 175.108 76.2681 174.947 76.5104 174.947H84.7469V175.754H76.9141V185.323Z" fill="#53BE4B"/>
<path d="M294.455 185.322H28.5854V186.13H294.455V185.322Z" fill="#53BE4B"/>
<path d="M103.562 53.0534L102.835 52.69C102.875 52.5689 104.248 49.7426 101.947 48.0065C99.605 46.2704 96.4154 49.0966 96.4154 49.137C96.2943 49.2581 96.1328 49.2581 95.9713 49.2178C95.8098 49.137 95.729 49.0159 95.729 48.8544C95.729 48.6525 95.4464 43.5653 89.8343 43C84.1818 42.4348 82.809 46.9971 82.809 47.0375C82.7686 47.1586 82.6879 47.2394 82.6071 47.2798C82.486 47.3201 82.4053 47.3201 82.2841 47.2798C80.225 46.4319 78.5293 46.4319 77.2776 47.199C75.2185 48.4506 74.9763 51.4788 74.9763 51.4788C74.9763 51.6403 74.8551 51.7614 74.734 51.8018C74.6129 51.8825 74.4514 51.8421 74.3303 51.7614C72.473 50.3886 70.8176 49.9041 69.3238 50.3079C67.2243 50.8731 66.2553 53.013 66.2553 53.013L65.5285 52.69C65.5689 52.5689 66.6994 50.1868 69.1219 49.5408C70.6965 49.137 72.4326 49.5408 74.2495 50.752C74.4514 49.6619 75.0974 47.6028 76.8335 46.5126C78.2466 45.6648 80.0231 45.6244 82.2034 46.3915C82.7283 45.1803 84.7066 41.6273 89.9554 42.1521C94.9215 42.6366 96.1731 46.4319 96.4961 48.0469C97.6266 47.199 100.291 45.7051 102.472 47.3605C105.298 49.5004 103.602 53.013 103.562 53.0534Z" fill="#53BE4B"/>
<path d="M107.478 52.4878H61.8544V53.2953H107.478V52.4878Z" fill="#53BE4B"/>
<path d="M257.269 74.7756L256.542 74.4122C256.583 74.2911 257.956 71.4648 255.654 69.7287C253.312 67.9926 250.123 70.8188 250.123 70.8592C250.002 70.9803 249.84 70.9803 249.679 70.9399C249.517 70.8592 249.436 70.7381 249.436 70.5766C249.436 70.3747 249.154 65.2874 243.542 64.7222C237.889 64.1569 236.516 68.7193 236.516 68.7597C236.476 68.8808 236.395 68.9616 236.315 69.0019C236.193 69.0423 236.113 69.0423 235.992 69.0019C233.932 68.1541 232.237 68.1541 230.985 68.9212C228.926 70.1728 228.684 73.2009 228.684 73.2009C228.684 73.3624 228.563 73.4836 228.441 73.5239C228.32 73.6047 228.159 73.5643 228.038 73.4836C226.18 72.1108 224.525 71.6263 223.031 72.0301C220.932 72.5953 219.963 74.7352 219.963 74.7352L219.236 74.4122C219.276 74.2911 220.407 71.9089 222.829 71.2629C224.404 70.8592 226.14 71.2629 227.957 72.4742C228.159 71.3841 228.805 69.3249 230.541 68.2348C231.954 67.3869 233.731 67.3466 235.911 68.1137C236.436 66.9024 238.414 63.3494 243.663 63.8743C248.629 64.3588 249.881 68.1541 250.204 69.7691C251.334 68.9212 253.999 67.4273 256.179 69.0827C259.005 71.2226 257.31 74.7756 257.269 74.7756Z" fill="#53BE4B"/>
<path d="M261.145 74.21H215.521V75.0175H261.145V74.21Z" fill="#53BE4B"/>
<path d="M130.25 102.513L129.523 102.19C129.563 102.069 130.694 99.6868 133.116 99.0408C134.691 98.637 136.427 99.0408 138.244 100.252C138.446 99.1619 139.092 97.1028 140.828 96.0126C142.241 95.1648 144.018 95.1244 146.198 95.8915C146.723 94.6803 148.701 91.1273 153.95 91.6521C154.556 91.6925 155.121 91.8136 155.646 91.9751L155.403 92.7423C154.919 92.5808 154.394 92.5 153.869 92.4596C148.257 91.8944 146.884 96.3356 146.844 96.4971C146.804 96.6183 146.723 96.699 146.642 96.7394C146.521 96.7798 146.44 96.7798 146.319 96.7394C144.26 95.8915 142.564 95.8915 141.313 96.6586C139.294 97.9103 139.011 100.938 139.011 100.938C139.011 101.1 138.89 101.221 138.769 101.261C138.648 101.302 138.486 101.302 138.365 101.221C136.508 99.8483 134.853 99.3638 133.359 99.7675C131.259 100.333 130.25 102.473 130.25 102.513Z" fill="#53BE4B"/>
<path d="M155.565 101.948H125.849V102.755H155.565V101.948Z" fill="#53BE4B"/>
<path d="M85.7565 194.447C84.2222 194.447 82.7284 193.841 81.6786 192.711C80.6289 193.801 79.135 194.447 77.6007 194.447C76.0665 194.447 74.5726 193.841 73.5229 192.711C72.4731 193.801 70.9792 194.447 69.445 194.447C67.9107 194.447 66.4169 193.841 65.3671 192.711C64.3174 193.801 62.8235 194.447 61.2892 194.447C59.5935 194.447 57.9785 193.68 56.8884 192.388L57.494 191.863C58.4226 192.993 59.7954 193.639 61.2489 193.639C62.7024 193.639 64.0751 192.993 65.0037 191.863C65.0845 191.782 65.2056 191.701 65.3267 191.701C65.4479 191.701 65.569 191.742 65.6497 191.863C66.5784 192.993 67.9511 193.639 69.4046 193.639C70.8581 193.639 72.2309 192.993 73.1595 191.863C73.321 191.661 73.644 191.661 73.7651 191.863C74.6937 192.993 76.0665 193.639 77.52 193.639C78.9735 193.639 80.3462 192.993 81.2749 191.863C81.4364 191.661 81.7594 191.661 81.8805 191.863C82.8091 192.993 84.1819 193.639 85.6354 193.639C87.0889 193.639 88.4616 192.993 89.3902 191.863L89.9959 192.388C89.0672 193.72 87.4926 194.447 85.7565 194.447Z" fill="#53BE4B"/>
<path d="M173.734 194.447C172.199 194.447 170.706 193.841 169.656 192.711C168.606 193.801 167.112 194.447 165.578 194.447C164.044 194.447 162.55 193.841 161.5 192.711C160.45 193.801 158.956 194.447 157.422 194.447C155.888 194.447 154.394 193.841 153.344 192.711C152.295 193.801 150.801 194.447 149.266 194.447C147.571 194.447 145.956 193.68 144.866 192.388L145.471 191.863C146.4 192.993 147.773 193.639 149.226 193.639C150.68 193.639 152.052 192.993 152.981 191.863C153.062 191.782 153.183 191.701 153.304 191.701C153.425 191.701 153.546 191.742 153.627 191.863C154.556 192.993 155.928 193.639 157.382 193.639C158.835 193.639 160.208 192.993 161.137 191.863C161.298 191.661 161.621 191.661 161.742 191.863C162.671 192.993 164.044 193.639 165.497 193.639C166.951 193.639 168.323 192.993 169.252 191.863C169.414 191.661 169.737 191.661 169.858 191.863C170.786 192.993 172.159 193.639 173.613 193.639C175.066 193.639 176.439 192.993 177.367 191.863L177.973 192.388C177.044 193.72 175.429 194.447 173.734 194.447Z" fill="#53BE4B"/>
<path d="M129.765 200.1C128.231 200.1 126.737 199.494 125.687 198.363C124.638 199.454 123.144 200.1 121.61 200.1C120.075 200.1 118.581 199.494 117.532 198.363C116.482 199.454 114.988 200.1 113.454 200.1C111.92 200.1 110.426 199.494 109.376 198.363C108.326 199.454 106.832 200.1 105.298 200.1C103.602 200.1 101.987 199.332 100.897 198.04L101.503 197.516C102.431 198.646 103.804 199.292 105.258 199.292C106.711 199.292 108.084 198.646 109.013 197.516C109.093 197.435 109.214 197.354 109.336 197.354C109.457 197.354 109.578 197.394 109.659 197.516C110.587 198.646 111.96 199.292 113.413 199.292C114.867 199.292 116.24 198.646 117.168 197.516C117.33 197.314 117.653 197.314 117.774 197.516C118.703 198.646 120.075 199.292 121.529 199.292C122.982 199.292 124.355 198.646 125.284 197.516C125.445 197.314 125.768 197.314 125.889 197.516C126.818 198.646 128.191 199.292 129.644 199.292C131.098 199.292 132.47 198.646 133.399 197.516L134.005 198.04C133.076 199.373 131.461 200.1 129.765 200.1Z" fill="#53BE4B"/>
<path d="M261.67 194.447C260.136 194.447 258.642 193.842 257.593 192.711C256.543 193.801 255.049 194.447 253.515 194.447C251.98 194.447 250.487 193.842 249.437 192.711C248.387 193.801 246.893 194.447 245.359 194.447C243.825 194.447 242.331 193.842 241.281 192.711C240.231 193.801 238.737 194.447 237.203 194.447C235.507 194.447 233.892 193.68 232.802 192.388L233.408 191.863C234.337 192.994 235.709 193.64 237.163 193.64C238.616 193.64 239.989 192.994 240.918 191.863C241.079 191.661 241.402 191.661 241.523 191.863C242.452 192.994 243.825 193.64 245.278 193.64C246.732 193.64 248.104 192.994 249.033 191.863C249.195 191.661 249.518 191.661 249.639 191.863C250.567 192.994 251.94 193.64 253.394 193.64C254.847 193.64 256.22 192.994 257.148 191.863C257.31 191.661 257.633 191.661 257.754 191.863C258.683 192.994 260.055 193.64 261.509 193.64C262.962 193.64 264.335 192.994 265.264 191.863L265.869 192.388C264.981 193.721 263.407 194.447 261.67 194.447Z" fill="#53BE4B"/>
<path d="M217.702 200.099C216.168 200.099 214.674 199.494 213.624 198.363C212.574 199.453 211.081 200.099 209.546 200.099C208.012 200.099 206.518 199.494 205.468 198.363C204.419 199.453 202.925 200.099 201.391 200.099C199.856 200.099 198.362 199.494 197.313 198.363C196.263 199.453 194.769 200.099 193.235 200.099C191.539 200.099 189.924 199.332 188.834 198.04L189.44 197.515C190.368 198.646 191.741 199.292 193.194 199.292C194.648 199.292 196.021 198.646 196.949 197.515C197.111 197.313 197.434 197.313 197.555 197.515C198.484 198.646 199.856 199.292 201.31 199.292C202.763 199.292 204.136 198.646 205.065 197.515C205.226 197.313 205.549 197.313 205.67 197.515C206.599 198.646 207.972 199.292 209.425 199.292C210.879 199.292 212.251 198.646 213.18 197.515C213.342 197.313 213.665 197.313 213.786 197.515C214.714 198.646 216.087 199.292 217.541 199.292C218.994 199.292 220.367 198.646 221.295 197.515L221.901 198.04C221.013 199.372 219.398 200.099 217.702 200.099Z" fill="#53BE4B"/>
<path d="M274.631 184.918C273.218 184.918 272.087 183.788 272.087 182.375C272.087 180.962 273.218 179.831 274.631 179.831C276.044 179.831 277.174 180.962 277.174 182.375C277.174 183.788 276.044 184.918 274.631 184.918ZM274.631 180.598C273.662 180.598 272.895 181.365 272.895 182.334C272.895 183.303 273.662 184.07 274.631 184.07C275.6 184.07 276.367 183.303 276.367 182.334C276.367 181.365 275.6 180.598 274.631 180.598Z" fill="#53BE4B"/>
<path d="M275.034 183.222H274.227V185.725H275.034V183.222Z" fill="#53BE4B"/>
<path d="M282.14 184.918C280.727 184.918 279.597 183.788 279.597 182.375C279.597 180.962 280.727 179.831 282.14 179.831C283.554 179.831 284.684 180.962 284.684 182.375C284.684 183.788 283.554 184.918 282.14 184.918ZM282.14 180.598C281.171 180.598 280.404 181.365 280.404 182.334C280.404 183.303 281.171 184.07 282.14 184.07C283.109 184.07 283.877 183.303 283.877 182.334C283.877 181.365 283.109 180.598 282.14 180.598Z" fill="#53BE4B"/>
<path d="M282.544 183.224H281.737V185.727H282.544V183.224Z" fill="#53BE4B"/>
<path d="M289.691 184.918C288.277 184.918 287.147 183.788 287.147 182.375C287.147 180.962 288.277 179.831 289.691 179.831C291.104 179.831 292.234 180.962 292.234 182.375C292.234 183.788 291.063 184.918 289.691 184.918ZM289.691 180.598C288.722 180.598 287.954 181.365 287.954 182.334C287.954 183.303 288.722 184.07 289.691 184.07C290.66 184.07 291.427 183.303 291.427 182.334C291.427 181.365 290.619 180.598 289.691 180.598Z" fill="#53BE4B"/>
<path d="M290.094 183.224H289.287V185.727H290.094V183.224Z" fill="#53BE4B"/>
<path d="M33.3094 184.918C31.8962 184.918 30.7657 183.788 30.7657 182.375C30.7657 180.962 31.8962 179.831 33.3094 179.831C34.7225 179.831 35.853 180.962 35.853 182.375C35.853 183.788 34.7225 184.918 33.3094 184.918ZM33.3094 180.598C32.3404 180.598 31.5732 181.365 31.5732 182.334C31.5732 183.303 32.3404 184.07 33.3094 184.07C34.2784 184.07 35.0455 183.303 35.0455 182.334C35.0455 181.365 34.2784 180.598 33.3094 180.598Z" fill="#53BE4B"/>
<path d="M33.7132 183.224H32.9057V185.727H33.7132V183.224Z" fill="#53BE4B"/>
<path d="M40.8594 184.918C39.4463 184.918 38.3158 183.788 38.3158 182.375C38.3158 180.962 39.4463 179.831 40.8594 179.831C42.2725 179.831 43.403 180.962 43.403 182.375C43.403 183.788 42.2322 184.918 40.8594 184.918ZM40.8594 180.598C39.8904 180.598 39.1233 181.365 39.1233 182.334C39.1233 183.303 39.8904 184.07 40.8594 184.07C41.8284 184.07 42.5955 183.303 42.5955 182.334C42.5955 181.365 41.788 180.598 40.8594 180.598Z" fill="#53BE4B"/>
<path d="M41.2632 183.224H40.4557V185.727H41.2632V183.224Z" fill="#53BE4B"/>
<path d="M48.3691 184.918C46.9559 184.918 45.8254 183.788 45.8254 182.375C45.8254 180.962 46.9559 179.831 48.3691 179.831C49.7822 179.831 50.9127 180.962 50.9127 182.375C50.9127 183.788 49.7822 184.918 48.3691 184.918ZM48.3691 180.598C47.4001 180.598 46.6329 181.365 46.6329 182.334C46.6329 183.303 47.4001 184.07 48.3691 184.07C49.3381 184.07 50.1052 183.303 50.1052 182.334C50.1052 181.365 49.3381 180.598 48.3691 180.598Z" fill="#53BE4B"/>
<path d="M48.7729 183.224H47.9654V185.727H48.7729V183.224Z" fill="#53BE4B"/>
</svg>
