<svg width="355" height="796" viewBox="0 0 355 796" fill="none" xmlns="http://www.w3.org/2000/svg">
<rect width="712.795" height="2.25568" transform="matrix(0 -1 -1 0 43.7301 753.142)" fill="#A5D6A7"/>
<path fill-rule="evenodd" clip-rule="evenodd" d="M83.2045 755.398C83.2045 732.974 65.0263 714.795 42.6023 714.795C20.1783 714.795 2 732.974 2 755.398C2 777.822 20.1783 796 42.6023 796C65.0263 796 83.2045 777.822 83.2045 755.398Z" fill="#ECF7ED"/>
<path d="M35.9027 747.862C36.7554 747.862 37.5336 748.065 38.2373 748.471C38.9546 748.877 39.5231 749.439 39.9426 750.156C40.3622 750.873 40.572 751.679 40.572 752.572V757.505C40.572 758.385 40.369 759.183 39.9629 759.901C39.5569 760.604 38.9952 761.166 38.2779 761.586C37.5742 761.992 36.7824 762.195 35.9027 762.195H35.6388C34.7455 762.195 33.9403 761.992 33.223 761.586C32.5192 761.166 31.9711 760.598 31.5786 759.88C31.1861 759.163 30.9898 758.371 30.9898 757.505V752.572C30.9898 751.665 31.1928 750.853 31.5989 750.136C32.0184 749.419 32.5801 748.864 33.2839 748.471C33.9876 748.065 34.7726 747.862 35.6388 747.862H35.9027ZM35.7809 749.669C34.9959 749.669 34.3328 749.933 33.7914 750.461C33.25 750.975 32.9793 751.625 32.9793 752.41V757.647C32.9793 758.432 33.25 759.089 33.7914 759.616C34.3328 760.131 34.9959 760.388 35.7809 760.388C36.5929 760.388 37.2629 760.124 37.7907 759.596C38.3185 759.068 38.5825 758.419 38.5825 757.647V752.41C38.5825 751.638 38.3185 750.988 37.7907 750.461C37.2629 749.933 36.5929 749.669 35.7809 749.669ZM49.5092 747.862C49.1303 749.216 48.4671 750.813 47.5197 752.653C46.5723 754.48 45.7129 755.847 44.9415 756.754H49.6107V752.714C50.0709 751.807 50.4363 750.88 50.707 749.933H51.6002V756.754H53.3664V758.561H51.6002V761.992H49.6107V758.561H43.0535V756.734C44.8941 753.973 46.3355 751.016 47.3776 747.862H49.5092Z" fill="#66BB6A"/>
<path fill-rule="evenodd" clip-rule="evenodd" d="M83.2045 517.423C83.2045 494.999 65.0263 476.821 42.6023 476.821C20.1783 476.821 2 494.999 2 517.423C2 539.847 20.1783 558.025 42.6023 558.025C65.0263 558.025 83.2045 539.847 83.2045 517.423Z" fill="#ECF7ED"/>
<path d="M35.9027 509.887C36.7554 509.887 37.5336 510.091 38.2373 510.497C38.9546 510.903 39.5231 511.464 39.9426 512.182C40.3622 512.899 40.572 513.704 40.572 514.597V519.531C40.572 520.41 40.369 521.209 39.9629 521.926C39.5569 522.63 38.9952 523.192 38.2779 523.611C37.5742 524.017 36.7824 524.22 35.9027 524.22H35.6388C34.7455 524.22 33.9403 524.017 33.223 523.611C32.5192 523.192 31.9711 522.623 31.5786 521.906C31.1861 521.188 30.9898 520.397 30.9898 519.531V514.597C30.9898 513.691 31.1928 512.879 31.5989 512.161C32.0184 511.444 32.5801 510.889 33.2839 510.497C33.9876 510.091 34.7726 509.887 35.6388 509.887H35.9027ZM35.7809 511.694C34.9959 511.694 34.3328 511.958 33.7914 512.486C33.25 513 32.9793 513.65 32.9793 514.435V519.673C32.9793 520.458 33.25 521.114 33.7914 521.642C34.3328 522.156 34.9959 522.413 35.7809 522.413C36.5929 522.413 37.2629 522.149 37.7907 521.622C38.3185 521.094 38.5825 520.444 38.5825 519.673V514.435C38.5825 513.664 38.3185 513.014 37.7907 512.486C37.2629 511.958 36.5929 511.694 35.7809 511.694ZM48.2912 509.887C49.1709 509.887 49.9559 510.05 50.6461 510.375C51.3363 510.7 51.8709 511.153 52.2499 511.735C52.6288 512.303 52.8183 512.946 52.8183 513.664C52.8183 514.435 52.6221 515.071 52.2296 515.572C51.8506 516.059 51.3093 516.465 50.6055 516.79L50.6258 516.851C51.3972 517.094 52.0063 517.507 52.4529 518.089C52.913 518.658 53.1431 519.388 53.1431 520.282C53.1431 521.04 52.9334 521.716 52.5138 522.312C52.0942 522.907 51.5123 523.374 50.7679 523.713C50.0235 524.051 49.1979 524.22 48.2912 524.22H48.0475C46.5723 524.22 45.3949 523.855 44.5151 523.124C43.649 522.379 43.2159 521.364 43.2159 520.079V519.916H45.2054V520.14C45.2054 520.884 45.4558 521.452 45.9565 521.845C46.4573 522.224 47.1746 522.413 48.1084 522.413C49.0694 522.413 49.8137 522.224 50.3416 521.845C50.8829 521.452 51.1536 520.864 51.1536 520.079C51.1536 518.59 50.1115 517.846 48.0272 517.846H46.5047V516.018H48.0678C48.8934 516.018 49.5566 515.829 50.0574 515.45C50.5717 515.071 50.8288 514.53 50.8288 513.826C50.8288 513.136 50.5784 512.608 50.0777 512.242C49.5904 511.877 48.934 511.694 48.1084 511.694C47.337 511.694 46.7144 511.884 46.2407 512.263C45.767 512.642 45.5302 513.17 45.5302 513.846V514.029H43.5407V513.664C43.5407 512.919 43.7369 512.263 44.1294 511.694C44.5354 511.112 45.0836 510.666 45.7738 510.354C46.4776 510.043 47.2558 509.887 48.1084 509.887H48.2912Z" fill="#53BE4B"/>
<path fill-rule="evenodd" clip-rule="evenodd" d="M83.2045 280.577C83.2045 258.153 65.0263 239.975 42.6023 239.975C20.1783 239.975 2 258.153 2 280.577C2 303.001 20.1783 321.179 42.6023 321.179C65.0263 321.179 83.2045 303.001 83.2045 280.577Z" fill="#ECF7ED"/>
<path d="M35.9027 273.041C36.7554 273.041 37.5336 273.244 38.2373 273.65C38.9546 274.056 39.5231 274.618 39.9426 275.335C40.3622 276.052 40.572 276.857 40.572 277.751V282.684C40.572 283.564 40.369 284.362 39.9629 285.079C39.5569 285.783 38.9952 286.345 38.2779 286.764C37.5742 287.17 36.7824 287.373 35.9027 287.373H35.6388C34.7455 287.373 33.9403 287.17 33.223 286.764C32.5192 286.345 31.9711 285.776 31.5786 285.059C31.1861 284.342 30.9898 283.55 30.9898 282.684V277.751C30.9898 276.844 31.1928 276.032 31.5989 275.315C32.0184 274.597 32.5801 274.042 33.2839 273.65C33.9876 273.244 34.7726 273.041 35.6388 273.041H35.9027ZM35.7809 274.848C34.9959 274.848 34.3328 275.112 33.7914 275.639C33.25 276.154 32.9793 276.803 32.9793 277.588V282.826C32.9793 283.611 33.25 284.267 33.7914 284.795C34.3328 285.309 34.9959 285.567 35.7809 285.567C36.5929 285.567 37.2629 285.303 37.7907 284.775C38.3185 284.247 38.5825 283.597 38.5825 282.826V277.588C38.5825 276.817 38.3185 276.167 37.7907 275.639C37.2629 275.112 36.5929 274.848 35.7809 274.848ZM48.4536 273.041C49.428 273.041 50.2536 273.237 50.9303 273.63C51.607 274.022 52.1145 274.53 52.4529 275.152C52.7912 275.775 52.9604 276.431 52.9604 277.121C52.9604 278.096 52.7642 278.894 52.3717 279.517C51.9792 280.139 51.3499 280.782 50.4837 281.445L46.6062 284.409C46.2949 284.626 46.0513 284.822 45.8753 284.998C45.7129 285.161 45.6317 285.282 45.6317 285.364H53.0213V287.17H43.4595V286.683C43.4595 285.993 43.6219 285.337 43.9467 284.714C44.2851 284.078 44.752 283.537 45.3475 283.09L49.3874 280.045C49.9559 279.585 50.3619 279.131 50.6055 278.685C50.8491 278.238 50.9709 277.744 50.9709 277.203C50.9709 276.797 50.8694 276.418 50.6664 276.066C50.4634 275.7 50.1656 275.409 49.7731 275.193C49.3807 274.963 48.907 274.848 48.3521 274.848C47.7836 274.848 47.2761 274.969 46.8295 275.213C46.3964 275.457 46.058 275.781 45.8144 276.187C45.5708 276.594 45.449 277.04 45.449 277.527V277.812C45.449 277.92 45.4558 278.001 45.4693 278.055H43.4798L43.4595 277.852V277.69C43.4595 276.905 43.6354 276.16 43.9873 275.457C44.3392 274.739 44.8873 274.157 45.6317 273.711C46.3761 273.264 47.3167 273.041 48.4536 273.041Z" fill="#53BE4B"/>
<path fill-rule="evenodd" clip-rule="evenodd" d="M83.2045 42.6023C83.2045 20.1783 65.0263 2.00005 42.6023 2.00005C20.1783 2.00005 2 20.1783 2 42.6023C2 65.0263 20.1783 83.2046 42.6023 83.2046C65.0263 83.2046 83.2045 65.0263 83.2045 42.6023Z" fill="#66BB6A" stroke="#B3DCB6" stroke-width="2.25568"/>
<path d="M34.7748 33.9388C35.6274 33.9388 36.4056 34.1418 37.1094 34.5478C37.8267 34.9538 38.3951 35.5155 38.8147 36.2328C39.2343 36.9501 39.444 37.7554 39.444 38.6486V43.5818C39.444 44.4615 39.241 45.26 38.835 45.9773C38.429 46.6811 37.8673 47.2428 37.15 47.6623C36.4462 48.0684 35.6545 48.2714 34.7748 48.2714H34.5109C33.6176 48.2714 32.8123 48.0684 32.095 47.6623C31.3913 47.2428 30.8431 46.6743 30.4506 45.957C30.0581 45.2397 29.8619 44.448 29.8619 43.5818V38.6486C29.8619 37.7418 30.0649 36.9298 30.4709 36.2125C30.8905 35.4952 31.4522 34.9403 32.1559 34.5478C32.8597 34.1418 33.6447 33.9388 34.5109 33.9388H34.7748ZM34.653 35.7456C33.868 35.7456 33.2048 36.0095 32.6635 36.5373C32.1221 37.0516 31.8514 37.7012 31.8514 38.4862V43.7239C31.8514 44.5089 32.1221 45.1653 32.6635 45.6931C33.2048 46.2074 33.868 46.4646 34.653 46.4646C35.465 46.4646 36.135 46.2007 36.6628 45.6728C37.1906 45.145 37.4545 44.4954 37.4545 43.7239V38.4862C37.4545 37.7148 37.1906 37.0651 36.6628 36.5373C36.135 36.0095 35.465 35.7456 34.653 35.7456ZM48.564 46.2616H52.2182V48.0684H42.9203V46.2616H46.5745V36.8012H42.8797V35.502C44.4902 35.3395 46.1279 34.8862 47.7926 34.1418H48.564V46.2616Z" fill="#D1EAD3"/>
<path d="M125.434 31.9336V48H128.387V31.9336H134.363V29.2031H119.469V31.9336H125.434ZM144.629 48C144.559 47.4023 144.535 46.7227 144.535 45.9375V39.832C144.535 38.9648 144.418 38.2266 144.102 37.5469C143.246 35.6836 141.453 34.9219 139.297 34.9219C138.359 34.9219 137.434 35.0859 136.695 35.4141C134.914 36.1992 133.93 37.8164 133.824 38.8945L136.414 39.4805C136.625 38.25 137.656 37.3594 139.215 37.3594C140.902 37.3594 141.734 38.2969 141.734 39.3164C141.734 39.9375 141.406 40.3945 140.539 40.3945H138.957C136.719 40.3945 133.625 41.332 133.625 44.3086V44.4492C133.625 46.6641 135.441 48.2227 137.949 48.2227C139.145 48.2227 140.773 47.8008 141.711 46.2422C141.711 46.6992 141.758 47.6836 141.828 48H144.629ZM141.711 42.8086C141.711 44.7422 140.469 45.9375 138.523 45.9375C137.316 45.9375 136.484 45.2344 136.484 44.1914C136.484 42.9844 137.867 42.3984 138.945 42.3984H141.711V42.8086ZM151.074 48V41.7305H151.156L156.5 48H160.273L154.168 40.9805L159.957 35.1914H156.078L151.098 40.2305H151.074V28.4531H148.215V48H151.074ZM163.496 42.4219H173.234C173.27 42.1289 173.281 41.8359 173.281 41.543C173.281 37.6875 171.02 34.9219 167.023 34.9219C163.309 34.9219 160.578 37.9336 160.578 41.5781C160.578 45.375 163.52 48.2344 167.293 48.2344C169.836 48.2344 172.344 46.8164 173.07 44.3555L170.656 43.6172C170.141 45.1641 168.805 45.7734 167.258 45.7734C165.371 45.7734 163.566 44.3906 163.496 42.4219ZM167.047 37.3711C168.816 37.3711 170.281 38.4375 170.375 40.2773H163.648C163.906 38.5195 165.289 37.3711 167.047 37.3711ZM189.793 37.7578V35.1914H186.535V31.2188H183.688V35.1914H181.203V37.7578H183.688V44.0273C183.688 47.1445 185.105 48.1172 187.625 48.1172C187.977 48.1172 188.891 48.0938 189.676 47.8594V45.4336C189.125 45.5039 188.773 45.5273 188.516 45.5273C187.086 45.5273 186.535 44.9766 186.535 43.875V37.7578H189.793ZM201.418 40.8281V48H204.277V40.1133C204.277 37.1953 202.73 34.9219 199.473 34.9219C198.465 34.9219 196.859 35.25 195.629 36.8086V28.4531H192.77V48H195.629V40.8633C195.629 38.9297 196.777 37.6289 198.594 37.6289C200.562 37.6289 201.418 39 201.418 40.8281ZM210.02 42.4219H219.758C219.793 42.1289 219.805 41.8359 219.805 41.543C219.805 37.6875 217.543 34.9219 213.547 34.9219C209.832 34.9219 207.102 37.9336 207.102 41.5781C207.102 45.375 210.043 48.2344 213.816 48.2344C216.359 48.2344 218.867 46.8164 219.594 44.3555L217.18 43.6172C216.664 45.1641 215.328 45.7734 213.781 45.7734C211.895 45.7734 210.09 44.3906 210.02 42.4219ZM213.57 37.3711C215.34 37.3711 216.805 38.4375 216.898 40.2773H210.172C210.43 38.5195 211.812 37.3711 213.57 37.3711ZM232.73 31.9336V48H235.684V31.9336H241.66V29.2031H226.766V31.9336H232.73ZM243.629 42.4219H253.367C253.402 42.1289 253.414 41.8359 253.414 41.543C253.414 37.6875 251.152 34.9219 247.156 34.9219C243.441 34.9219 240.711 37.9336 240.711 41.5781C240.711 45.375 243.652 48.2344 247.426 48.2344C249.969 48.2344 252.477 46.8164 253.203 44.3555L250.789 43.6172C250.273 45.1641 248.938 45.7734 247.391 45.7734C245.504 45.7734 243.699 44.3906 243.629 42.4219ZM247.18 37.3711C248.949 37.3711 250.414 38.4375 250.508 40.2773H243.781C244.039 38.5195 245.422 37.3711 247.18 37.3711ZM260.516 48.2227C263.703 48.2227 265.191 46.207 265.191 44.2266C265.191 42.3984 263.902 40.875 261.559 40.3711L259.801 39.9961C259.086 39.8438 258.512 39.4219 258.512 38.6719C258.512 37.8047 259.367 37.2188 260.27 37.2188C261.781 37.2188 262.402 38.1797 262.59 39.0117L265.004 38.332C264.781 37.1016 263.633 34.9102 260.27 34.9102C257.656 34.9102 255.746 36.7969 255.746 38.918C255.746 40.5938 256.801 42.0469 259.133 42.5977L260.773 42.9844C261.852 43.2422 262.297 43.6992 262.297 44.3906C262.297 45.2812 261.652 45.8906 260.469 45.8906C259.004 45.8906 258.137 44.9414 257.902 43.8516L255.453 44.4961C255.617 45.9258 257.035 48.2227 260.516 48.2227ZM275.293 37.7578V35.1914H272.035V31.2188H269.188V35.1914H266.703V37.7578H269.188V44.0273C269.188 47.1445 270.605 48.1172 273.125 48.1172C273.477 48.1172 274.391 48.0938 275.176 47.8594V45.4336C274.625 45.5039 274.273 45.5273 274.016 45.5273C272.586 45.5273 272.035 44.9766 272.035 43.875V37.7578H275.293Z" fill="#263238"/>
<path d="M124.344 287V268.203H121.391V287H124.344ZM137.293 279.828V287H140.152V279.113C140.152 276.195 138.605 273.922 135.348 273.922C134.34 273.922 132.664 274.262 131.434 275.914V274.191H128.645V287H131.504V279.863C131.504 277.93 132.652 276.629 134.469 276.629C136.438 276.629 137.293 278 137.293 279.828ZM157.215 280.543C157.215 277.332 154.848 273.934 150.91 273.934C149.785 273.934 147.699 274.426 146.621 276.172V274.191H143.832V293.316H146.691V285.125C147.711 286.695 149.867 287.199 150.84 287.199C154.637 287.199 157.215 284.035 157.215 280.543ZM146.645 280.578C146.645 278.352 148.168 276.523 150.488 276.523C152.809 276.523 154.332 278.352 154.332 280.578C154.332 282.781 152.797 284.609 150.488 284.609C148.168 284.609 146.645 282.77 146.645 280.578ZM162.887 281.363V274.191H160.027V282.066C160.027 284.973 161.621 287.27 164.832 287.27C165.84 287.27 167.516 286.93 168.746 285.277V287H171.535V274.191H168.676V281.316C168.676 283.25 167.527 284.562 165.711 284.562C163.742 284.562 162.887 283.18 162.887 281.363ZM182.598 276.758V274.191H179.34V270.219H176.492V274.191H174.008V276.758H176.492V283.027C176.492 286.145 177.91 287.117 180.43 287.117C180.781 287.117 181.695 287.094 182.48 286.859V284.434C181.93 284.504 181.578 284.527 181.32 284.527C179.891 284.527 179.34 283.977 179.34 282.875V276.758H182.598ZM196.719 279.488V287H199.695V279.418L206.785 268.203H203.41L198.23 276.641L193.074 268.203H189.664L196.719 279.488ZM205.379 280.578C205.379 284.352 208.438 287.223 212.141 287.223C215.902 287.223 218.891 284.305 218.891 280.52C218.891 276.758 215.844 273.922 212.164 273.922C208.438 273.922 205.379 276.77 205.379 280.578ZM208.297 280.52C208.297 278.305 209.82 276.512 212.141 276.512C214.461 276.512 215.984 278.352 215.984 280.578C215.984 282.781 214.484 284.633 212.164 284.633C209.844 284.633 208.297 282.711 208.297 280.52ZM224.574 281.363V274.191H221.715V282.066C221.715 284.973 223.309 287.27 226.52 287.27C227.527 287.27 229.203 286.93 230.434 285.277V287H233.223V274.191H230.363V281.316C230.363 283.25 229.215 284.562 227.398 284.562C225.43 284.562 224.574 283.18 224.574 281.363ZM244.062 277.074V274.145C243.852 274.098 243.465 274.074 243.359 274.074C242.012 274.074 240.617 274.766 239.844 276.16V274.191H237.043V287H239.902V280.484C239.902 278.293 241.062 277.004 243.254 277.004C243.289 277.004 243.828 277.027 244.062 277.074ZM268.637 277.613C268.637 273.699 265.836 268.203 258.605 268.203H252.641V287H258.652C265.59 287 268.637 281.938 268.637 277.613ZM265.543 277.613C265.543 280.754 263.48 284.258 258.523 284.258H255.594V270.934H258.547C263.504 270.934 265.543 274.695 265.543 277.613ZM281.902 287C281.832 286.402 281.809 285.723 281.809 284.938V278.832C281.809 277.965 281.691 277.227 281.375 276.547C280.52 274.684 278.727 273.922 276.57 273.922C275.633 273.922 274.707 274.086 273.969 274.414C272.188 275.199 271.203 276.816 271.098 277.895L273.688 278.48C273.898 277.25 274.93 276.359 276.488 276.359C278.176 276.359 279.008 277.297 279.008 278.316C279.008 278.938 278.68 279.395 277.812 279.395H276.23C273.992 279.395 270.898 280.332 270.898 283.309V283.449C270.898 285.664 272.715 287.223 275.223 287.223C276.418 287.223 278.047 286.801 278.984 285.242C278.984 285.699 279.031 286.684 279.102 287H281.902ZM278.984 281.809C278.984 283.742 277.742 284.938 275.797 284.938C274.59 284.938 273.758 284.234 273.758 283.191C273.758 281.984 275.141 281.398 276.219 281.398H278.984V281.809ZM292.613 276.758V274.191H289.355V270.219H286.508V274.191H284.023V276.758H286.508V283.027C286.508 286.145 287.926 287.117 290.445 287.117C290.797 287.117 291.711 287.094 292.496 286.859V284.434C291.945 284.504 291.594 284.527 291.336 284.527C289.906 284.527 289.355 283.977 289.355 282.875V276.758H292.613ZM305.809 287C305.738 286.402 305.715 285.723 305.715 284.938V278.832C305.715 277.965 305.598 277.227 305.281 276.547C304.426 274.684 302.633 273.922 300.477 273.922C299.539 273.922 298.613 274.086 297.875 274.414C296.094 275.199 295.109 276.816 295.004 277.895L297.594 278.48C297.805 277.25 298.836 276.359 300.395 276.359C302.082 276.359 302.914 277.297 302.914 278.316C302.914 278.938 302.586 279.395 301.719 279.395H300.137C297.898 279.395 294.805 280.332 294.805 283.309V283.449C294.805 285.664 296.621 287.223 299.129 287.223C300.324 287.223 301.953 286.801 302.891 285.242C302.891 285.699 302.938 286.684 303.008 287H305.809ZM302.891 281.809C302.891 283.742 301.648 284.938 299.703 284.938C298.496 284.938 297.664 284.234 297.664 283.191C297.664 281.984 299.047 281.398 300.125 281.398H302.891V281.809Z" fill="#263238"/>
<path d="M126.957 524.211C131.129 524.211 133.461 521.445 133.461 518.727C133.461 515.938 131.691 513.934 128.34 513.277L125.961 512.809C124.449 512.516 123.594 511.379 123.594 510.312C123.594 508.871 124.988 507.594 126.828 507.594C128.82 507.594 130.086 509.082 130.414 510.418L133.168 509.551C132.781 507.523 131.035 504.934 126.77 504.934C123.395 504.934 120.57 507.488 120.57 510.582C120.57 513.043 122.246 515.082 125.328 515.703L127.637 516.172C129.23 516.5 130.414 517.367 130.414 518.914C130.414 520.496 128.891 521.551 127.016 521.551C124.766 521.551 123.266 520.133 122.855 517.941L119.996 518.727C120.277 521.375 122.574 524.211 126.957 524.211ZM138.605 518.422H148.344C148.379 518.129 148.391 517.836 148.391 517.543C148.391 513.688 146.129 510.922 142.133 510.922C138.418 510.922 135.688 513.934 135.688 517.578C135.688 521.375 138.629 524.234 142.402 524.234C144.945 524.234 147.453 522.816 148.18 520.355L145.766 519.617C145.25 521.164 143.914 521.773 142.367 521.773C140.48 521.773 138.676 520.391 138.605 518.422ZM142.156 513.371C143.926 513.371 145.391 514.438 145.484 516.277H138.758C139.016 514.52 140.398 513.371 142.156 513.371ZM153.371 518.422H163.109C163.145 518.129 163.156 517.836 163.156 517.543C163.156 513.688 160.895 510.922 156.898 510.922C153.184 510.922 150.453 513.934 150.453 517.578C150.453 521.375 153.395 524.234 157.168 524.234C159.711 524.234 162.219 522.816 162.945 520.355L160.531 519.617C160.016 521.164 158.68 521.773 157.133 521.773C155.246 521.773 153.441 520.391 153.371 518.422ZM156.922 513.371C158.691 513.371 160.156 514.438 160.25 516.277H153.523C153.781 514.52 155.164 513.371 156.922 513.371ZM177.219 516.488V524H180.195V516.418L187.285 505.203H183.91L178.73 513.641L173.574 505.203H170.164L177.219 516.488ZM185.879 517.578C185.879 521.352 188.938 524.223 192.641 524.223C196.402 524.223 199.391 521.305 199.391 517.52C199.391 513.758 196.344 510.922 192.664 510.922C188.938 510.922 185.879 513.77 185.879 517.578ZM188.797 517.52C188.797 515.305 190.32 513.512 192.641 513.512C194.961 513.512 196.484 515.352 196.484 517.578C196.484 519.781 194.984 521.633 192.664 521.633C190.344 521.633 188.797 519.711 188.797 517.52ZM205.074 518.363V511.191H202.215V519.066C202.215 521.973 203.809 524.27 207.02 524.27C208.027 524.27 209.703 523.93 210.934 522.277V524H213.723V511.191H210.863V518.316C210.863 520.25 209.715 521.562 207.898 521.562C205.93 521.562 205.074 520.18 205.074 518.363ZM224.562 514.074V511.145C224.352 511.098 223.965 511.074 223.859 511.074C222.512 511.074 221.117 511.766 220.344 513.16V511.191H217.543V524H220.402V517.484C220.402 515.293 221.562 514.004 223.754 514.004C223.789 514.004 224.328 514.027 224.562 514.074ZM246.371 511.051C246.371 508.133 244.508 505.203 239.797 505.203H233.141V524H236.094V517.039H239.445C243.98 517.039 246.371 514.297 246.371 511.051ZM243.371 511.121C243.371 512.598 242.387 514.332 239.539 514.332H236.094V507.934H239.539C242.621 507.934 243.371 509.703 243.371 511.121ZM251.902 524V504.453H249.043V524H251.902ZM265.941 524C265.871 523.402 265.848 522.723 265.848 521.938V515.832C265.848 514.965 265.73 514.227 265.414 513.547C264.559 511.684 262.766 510.922 260.609 510.922C259.672 510.922 258.746 511.086 258.008 511.414C256.227 512.199 255.242 513.816 255.137 514.895L257.727 515.48C257.938 514.25 258.969 513.359 260.527 513.359C262.215 513.359 263.047 514.297 263.047 515.316C263.047 515.938 262.719 516.395 261.852 516.395H260.27C258.031 516.395 254.938 517.332 254.938 520.309V520.449C254.938 522.664 256.754 524.223 259.262 524.223C260.457 524.223 262.086 523.801 263.023 522.242C263.023 522.699 263.07 523.684 263.141 524H265.941ZM263.023 518.809C263.023 520.742 261.781 521.938 259.836 521.938C258.629 521.938 257.797 521.234 257.797 520.191C257.797 518.984 259.18 518.398 260.258 518.398H263.023V518.809ZM278.176 516.828V524H281.035V516.113C281.035 513.195 279.488 510.922 276.23 510.922C275.223 510.922 273.547 511.262 272.316 512.914V511.191H269.527V524H272.387V516.863C272.387 514.93 273.535 513.629 275.352 513.629C277.32 513.629 278.176 515 278.176 516.828Z" fill="#263238"/>
<path d="M125.434 745.934V762H128.387V745.934H134.363V743.203H119.469V745.934H125.434ZM141.406 752.074V749.145C141.195 749.098 140.809 749.074 140.703 749.074C139.355 749.074 137.961 749.766 137.188 751.16V749.191H134.387V762H137.246V755.484C137.246 753.293 138.406 752.004 140.598 752.004C140.633 752.004 141.172 752.027 141.406 752.074ZM153.793 762C153.723 761.402 153.699 760.723 153.699 759.938V753.832C153.699 752.965 153.582 752.227 153.266 751.547C152.41 749.684 150.617 748.922 148.461 748.922C147.523 748.922 146.598 749.086 145.859 749.414C144.078 750.199 143.094 751.816 142.988 752.895L145.578 753.48C145.789 752.25 146.82 751.359 148.379 751.359C150.066 751.359 150.898 752.297 150.898 753.316C150.898 753.938 150.57 754.395 149.703 754.395H148.121C145.883 754.395 142.789 755.332 142.789 758.309V758.449C142.789 760.664 144.605 762.223 147.113 762.223C148.309 762.223 149.938 761.801 150.875 760.242C150.875 760.699 150.922 761.684 150.992 762H153.793ZM150.875 756.809C150.875 758.742 149.633 759.938 147.688 759.938C146.48 759.938 145.648 759.234 145.648 758.191C145.648 756.984 147.031 756.398 148.109 756.398H150.875V756.809ZM163.191 762.223C166.684 762.223 168.664 759.973 169.238 758.027L166.625 757.184C166.25 758.168 165.441 759.621 163.25 759.621C161.07 759.621 159.453 757.91 159.453 755.52C159.453 753.094 161.141 751.512 163.227 751.512C165.348 751.512 166.285 752.906 166.578 753.902L169.168 753.059C168.629 750.891 166.414 748.922 163.238 748.922C159.418 748.922 156.523 751.91 156.523 755.566C156.523 759.34 159.418 762.223 163.191 762.223ZM174.863 762V755.73H174.945L180.289 762H184.062L177.957 754.98L183.746 749.191H179.867L174.887 754.23H174.863V742.453H172.004V762H174.863ZM197.07 754.488V762H200.047V754.418L207.137 743.203H203.762L198.582 751.641L193.426 743.203H190.016L197.07 754.488ZM205.73 755.578C205.73 759.352 208.789 762.223 212.492 762.223C216.254 762.223 219.242 759.305 219.242 755.52C219.242 751.758 216.195 748.922 212.516 748.922C208.789 748.922 205.73 751.77 205.73 755.578ZM208.648 755.52C208.648 753.305 210.172 751.512 212.492 751.512C214.812 751.512 216.336 753.352 216.336 755.578C216.336 757.781 214.836 759.633 212.516 759.633C210.195 759.633 208.648 757.711 208.648 755.52ZM224.926 756.363V749.191H222.066V757.066C222.066 759.973 223.66 762.27 226.871 762.27C227.879 762.27 229.555 761.93 230.785 760.277V762H233.574V749.191H230.715V756.316C230.715 758.25 229.566 759.562 227.75 759.562C225.781 759.562 224.926 758.18 224.926 756.363ZM244.414 752.074V749.145C244.203 749.098 243.816 749.074 243.711 749.074C242.363 749.074 240.969 749.766 240.195 751.16V749.191H237.395V762H240.254V755.484C240.254 753.293 241.414 752.004 243.605 752.004C243.641 752.004 244.18 752.027 244.414 752.074ZM266.223 749.051C266.223 746.133 264.359 743.203 259.648 743.203H252.992V762H255.945V755.039H259.297C263.832 755.039 266.223 752.297 266.223 749.051ZM263.223 749.121C263.223 750.598 262.238 752.332 259.391 752.332H255.945V745.934H259.391C262.473 745.934 263.223 747.703 263.223 749.121ZM275.914 752.074V749.145C275.703 749.098 275.316 749.074 275.211 749.074C273.863 749.074 272.469 749.766 271.695 751.16V749.191H268.895V762H271.754V755.484C271.754 753.293 272.914 752.004 275.105 752.004C275.141 752.004 275.68 752.027 275.914 752.074ZM277.191 755.578C277.191 759.352 280.25 762.223 283.953 762.223C287.715 762.223 290.703 759.305 290.703 755.52C290.703 751.758 287.656 748.922 283.977 748.922C280.25 748.922 277.191 751.77 277.191 755.578ZM280.109 755.52C280.109 753.305 281.633 751.512 283.953 751.512C286.273 751.512 287.797 753.352 287.797 755.578C287.797 757.781 286.297 759.633 283.977 759.633C281.656 759.633 280.109 757.711 280.109 755.52ZM299.035 762.094C300.066 762.094 302.188 761.602 303.23 759.938V762.047C303.23 764.73 301.156 765.855 299.047 765.855C297.254 765.855 295.801 764.625 295.531 763.324L292.836 764.086C293.387 767.039 296.375 768.41 299.164 768.41C303.078 768.41 306.09 765.984 306.09 761.93V749.191H303.301V751.137C302.258 749.52 300.23 748.969 299.117 748.969C295.109 748.969 292.801 752.426 292.801 755.543C292.801 758.988 295.344 762.094 299.035 762.094ZM303.277 755.508C303.277 757.699 301.777 759.539 299.469 759.539C297.148 759.539 295.637 757.711 295.637 755.508C295.637 753.293 297.137 751.523 299.457 751.523C301.777 751.523 303.277 753.293 303.277 755.508ZM316.93 752.074V749.145C316.719 749.098 316.332 749.074 316.227 749.074C314.879 749.074 313.484 749.766 312.711 751.16V749.191H309.91V762H312.77V755.484C312.77 753.293 313.93 752.004 316.121 752.004C316.156 752.004 316.695 752.027 316.93 752.074ZM321.137 756.422H330.875C330.91 756.129 330.922 755.836 330.922 755.543C330.922 751.688 328.66 748.922 324.664 748.922C320.949 748.922 318.219 751.934 318.219 755.578C318.219 759.375 321.16 762.234 324.934 762.234C327.477 762.234 329.984 760.816 330.711 758.355L328.297 757.617C327.781 759.164 326.445 759.773 324.898 759.773C323.012 759.773 321.207 758.391 321.137 756.422ZM324.688 751.371C326.457 751.371 327.922 752.438 328.016 754.277H321.289C321.547 752.52 322.93 751.371 324.688 751.371ZM338.023 762.223C341.211 762.223 342.699 760.207 342.699 758.227C342.699 756.398 341.41 754.875 339.066 754.371L337.309 753.996C336.594 753.844 336.02 753.422 336.02 752.672C336.02 751.805 336.875 751.219 337.777 751.219C339.289 751.219 339.91 752.18 340.098 753.012L342.512 752.332C342.289 751.102 341.141 748.91 337.777 748.91C335.164 748.91 333.254 750.797 333.254 752.918C333.254 754.594 334.309 756.047 336.641 756.598L338.281 756.984C339.359 757.242 339.805 757.699 339.805 758.391C339.805 759.281 339.16 759.891 337.977 759.891C336.512 759.891 335.645 758.941 335.41 757.852L332.961 758.496C333.125 759.926 334.543 762.223 338.023 762.223ZM349.93 762.223C353.117 762.223 354.605 760.207 354.605 758.227C354.605 756.398 353.316 754.875 350.973 754.371L349.215 753.996C348.5 753.844 347.926 753.422 347.926 752.672C347.926 751.805 348.781 751.219 349.684 751.219C351.195 751.219 351.816 752.18 352.004 753.012L354.418 752.332C354.195 751.102 353.047 748.91 349.684 748.91C347.07 748.91 345.16 750.797 345.16 752.918C345.16 754.594 346.215 756.047 348.547 756.598L350.188 756.984C351.266 757.242 351.711 757.699 351.711 758.391C351.711 759.281 351.066 759.891 349.883 759.891C348.418 759.891 347.551 758.941 347.316 757.852L344.867 758.496C345.031 759.926 346.449 762.223 349.93 762.223Z" fill="#263238"/>
</svg>
